<svg version="1.1" id="_x32_" xmlns="http://www.w3.org/2000/svg" x="0" y="0" viewBox="0 0 512 512" style="enable-background:new 0 0 512 512" xml:space="preserve"><path d="M3 290.8c9.8 59.4 46.5 205.5 188.5 205.5 102.7 0 195.6-.8 242.1-58.7 38.9-48.4 34-115.3 3-165.8-22.6-36.9-33.3-44-25.9-53.8 6.9-9.2 14.2-20.5 20-33.6 13 .4 32.7 2 45.4 6.4 13.5 4.6 25.7-13.7 16.1-24.6-7.1-8.1-15-14.3-24.4-18.8 33.3-13.2 46.3-55.1 44-70.5-3.3-22-22-26.9-29.3-9.8-6.8 15.9-14.7 29.6-48.9 22.8-17.5-43.4-60.6-74.2-110.9-74.2-65.9 0-119.2 52.6-119.2 117.4 0 13 2.8 30.8 6.7 42.5 55 128.4-115.5 93-141.1 74.9C18.2 214.7-9.5 214.7 3 290.8zm336.3-178.4c0-10.8 8.8-19.6 19.6-19.6s19.6 8.8 19.6 19.6-8.8 19.6-19.6 19.6c-10.8-.1-19.6-8.8-19.6-19.6z" style="fill:#ff9500"/></svg>